<?xml version="1.0" encoding="utf-8"?>
<!-- Generator: Adobe Illustrator 16.2.0, SVG Export Plug-In . SVG Version: 6.00 Build 0)  -->
<!DOCTYPE svg PUBLIC "-//W3C//DTD SVG 1.1//EN" "http://www.w3.org/Graphics/SVG/1.1/DTD/svg11.dtd">
<svg version="1.1" id="Layer_1" xmlns="http://www.w3.org/2000/svg" xmlns:xlink="http://www.w3.org/1999/xlink" x="0px" y="0px"
	 width="1350px" height="180px" viewBox="0 0 1350 180" enable-background="new 0 0 1350 180" xml:space="preserve">
<ellipse opacity="0.3" fill="none" stroke="#000000" stroke-width="5" stroke-miterlimit="10" cx="90" cy="90" rx="22.2" ry="82.607"/>
<path opacity="0.3" fill="none" stroke="#000000" stroke-width="5" stroke-miterlimit="10" d="M101.099,70.773
	c39.511,22.813,66.571,49.911,60.44,60.53c-6.133,10.619-43.13,0.734-82.64-22.076C39.388,86.415,12.33,59.315,18.461,48.696
	C24.591,38.078,61.588,47.963,101.099,70.773z"/>
<ellipse transform="matrix(-0.5 -0.866 0.866 -0.5 57.0525 212.9399)" opacity="0.3" fill="none" stroke="#000000" stroke-width="5" stroke-miterlimit="10" cx="89.999" cy="90" rx="22.201" ry="82.608"/>
<circle opacity="0.3" cx="90" cy="90.001" r="12.821"/>
<circle opacity="0.8" fill="#003FDB" cx="33.595" cy="44.801" r="7"/>
<g opacity="0.8">
	<g>
		<path fill="#333333" d="M264.061,127.185c0,16.81-10.146,25.211-30.434,25.211c-20.291,0-30.434-8.401-30.434-25.211v-15.307
			h12.605v16.026c0,4.322,1.5,7.685,4.502,10.085c3,2.403,7.442,3.602,13.327,3.602c5.88,0,10.322-1.198,13.326-3.602
			c2.998-2.4,4.502-5.673,4.502-9.814s-0.451-7.442-1.352-9.904c-0.9-2.459-2.732-5.07-5.492-7.833l-31.694-30.974
			c-3.723-3.72-6.275-7.352-7.654-10.895c-1.381-3.54-2.071-8.014-2.071-13.416c0-8.042,2.49-14.254,7.473-18.638
			c4.98-4.381,12.516-6.573,22.6-6.573c19.328,0,28.994,8.405,28.994,25.211v15.307h-12.605V54.433
			c0-4.322-1.414-7.682-4.232-10.084c-2.822-2.4-7.055-3.602-12.695-3.602c-5.645,0-9.877,1.201-12.696,3.602
			c-2.822,2.403-4.232,5.703-4.232,9.904c0,4.204,0.419,7.504,1.261,9.904c0.838,2.403,2.701,4.924,5.583,7.563l32.233,30.973
			c3.48,3.844,5.881,7.535,7.203,11.075C263.398,117.311,264.061,121.782,264.061,127.185z"/>
		<path fill="#333333" d="M340.591,127.185v-9.904h12.605v9.904c0,8.044-2.462,14.257-7.383,18.638
			c-4.924,4.382-12.308,6.573-22.149,6.573c-9.846,0-17.288-2.191-22.33-6.573c-5.042-4.381-7.563-10.594-7.563-18.638V55.153
			c0-8.042,2.459-14.254,7.384-18.638c4.921-4.381,12.304-6.573,22.149-6.573c9.843,0,17.287,2.192,22.33,6.573
			c5.042,4.384,7.562,10.596,7.562,18.638V72.26h-12.605V55.153c0-9.604-5.703-14.406-17.107-14.406
			c-11.406,0-17.107,4.803-17.107,14.406v72.032c0,9.606,5.701,14.406,17.107,14.406
			C334.888,141.591,340.591,136.791,340.591,127.185z"/>
		<path fill="#333333" d="M397.314,149.694h-12.605V32.643h12.605V149.694z"/>
		<path fill="#333333" d="M477.447,127.185v-9.904h12.605v9.904c0,8.044-2.462,14.257-7.383,18.638
			c-4.924,4.382-12.308,6.573-22.149,6.573c-9.846,0-17.288-2.191-22.33-6.573c-5.042-4.381-7.563-10.594-7.563-18.638V55.153
			c0-8.042,2.459-14.254,7.384-18.638c4.921-4.381,12.304-6.573,22.149-6.573c9.843,0,17.287,2.192,22.33,6.573
			c5.042,4.384,7.562,10.596,7.562,18.638v39.618h-46.82v32.414c0,9.606,5.701,14.406,17.107,14.406
			C471.744,141.591,477.447,136.791,477.447,127.185z M443.232,55.153v28.813h34.215V55.153c0-9.604-5.703-14.406-17.107-14.406
			C448.934,40.747,443.232,45.549,443.232,55.153z"/>
		<path fill="#333333" d="M535.974,149.694h-12.605V32.643h5.402l4.502,11.706c5.763-9.604,13.745-14.407,23.951-14.407
			c17.647,0,26.472,8.405,26.472,25.211v94.542h-12.606V55.153c0-4.561-0.99-8.104-2.971-10.625
			c-1.981-2.521-5.613-3.781-10.895-3.781c-5.284,0-10.146,2.042-14.587,6.123c-4.442,4.083-6.663,8.044-6.663,11.885V149.694z"/>
		<path fill="#333333" d="M662.027,127.185v-9.904h12.605v9.904c0,8.044-2.462,14.257-7.383,18.638
			c-4.924,4.382-12.308,6.573-22.149,6.573c-9.846,0-17.288-2.191-22.33-6.573c-5.042-4.381-7.563-10.594-7.563-18.638V55.153
			c0-8.042,2.459-14.254,7.384-18.638c4.921-4.381,12.304-6.573,22.149-6.573c9.843,0,17.287,2.192,22.33,6.573
			c5.042,4.384,7.562,10.596,7.562,18.638V72.26h-12.605V55.153c0-9.604-5.703-14.406-17.107-14.406
			c-11.406,0-17.107,4.803-17.107,14.406v72.032c0,9.606,5.701,14.406,17.107,14.406
			C656.324,141.591,662.027,136.791,662.027,127.185z"/>
		<path fill="#333333" d="M750.265,127.185v-9.904h12.605v9.904c0,8.044-2.462,14.257-7.383,18.638
			c-4.924,4.382-12.308,6.573-22.149,6.573c-9.846,0-17.288-2.191-22.33-6.573c-5.042-4.381-7.563-10.594-7.563-18.638V55.153
			c0-8.042,2.459-14.254,7.384-18.638c4.921-4.381,12.304-6.573,22.149-6.573c9.843,0,17.287,2.192,22.33,6.573
			c5.042,4.384,7.562,10.596,7.562,18.638v39.618h-46.82v32.414c0,9.606,5.701,14.406,17.107,14.406
			C744.562,141.591,750.265,136.791,750.265,127.185z M716.05,55.153v28.813h34.215V55.153c0-9.604-5.703-14.406-17.107-14.406
			C721.751,40.747,716.05,45.549,716.05,55.153z"/>
		<path fill="#333333" d="M809.691,77.663h-16.207V57.854h16.207V77.663z M809.691,149.694h-16.207v-19.809h16.207V149.694z"/>
		<path fill="#003FDB" stroke="#003FDB" stroke-width="1.7386" stroke-miterlimit="10" d="M866.955,101.073V90.269h32.774v59.426
			h-5.402l-4.682-11.525c-2.521,4.322-5.824,7.774-9.904,10.354c-4.083,2.581-8.525,3.872-13.326,3.872
			c-17.408,0-26.111-8.401-26.111-25.211V55.153c0-8.042,2.459-14.254,7.384-18.638c4.921-4.381,12.304-6.573,22.149-6.573
			c9.843,0,17.287,2.192,22.33,6.573c5.042,4.384,7.562,10.596,7.562,18.638v9.904h-12.605v-9.904
			c0-9.604-5.703-14.406-17.107-14.406c-11.406,0-17.107,4.803-17.107,14.406v72.032c0,4.563,0.96,8.104,2.882,10.625
			c1.919,2.521,5.43,3.781,10.534,3.781c5.102,0,9.843-2.04,14.227-6.123c4.381-4.08,6.572-8.041,6.572-11.885v-22.51H866.955z"/>
		<path fill="#003FDB" stroke="#003FDB" stroke-width="1.7386" stroke-miterlimit="10" d="M949.612,32.643h18.908l26.472,117.052
			h-12.605l-6.123-27.012h-34.395l-6.123,27.012h-12.605L949.612,32.643z M958.977,46.689l-14.767,65.189h29.533L958.977,46.689z"/>
		<path fill="#003FDB" stroke="#003FDB" stroke-width="1.7386" stroke-miterlimit="10" d="M1028.484,149.694h-12.605V32.643h18.908
			l20.529,77.254l20.709-77.254h18.908v117.052h-12.605V52.812l-21.069,78.875h-11.705l-21.069-78.875V149.694z"/>
		<path fill="#003FDB" stroke="#003FDB" stroke-width="1.7386" stroke-miterlimit="10" d="M1174.888,149.694h-53.123V32.643h51.322
			v10.805h-38.717v41.418h31.514v10.805h-31.514v43.219h40.518V149.694z"/>
		<path fill="#003FDB" stroke="#003FDB" stroke-width="1.7386" stroke-miterlimit="10" d="M1230.892,149.694h-28.993V32.643h28.993
			c9.364,0,16.477,2.223,21.339,6.663c4.862,4.443,7.293,10.625,7.293,18.548v66.629c0,8.044-2.402,14.257-7.203,18.638
			C1247.518,147.505,1240.374,149.694,1230.892,149.694z M1246.918,124.483V57.854c0-3.841-1.412-7.203-4.231-10.084
			c-2.822-2.881-6.753-4.322-11.795-4.322h-16.388v95.442h16.388c5.042,0,8.973-1.41,11.795-4.231
			C1245.506,131.838,1246.918,128.445,1246.918,124.483z"/>
	</g>
</g>
</svg>
